<?xml version="1.0" encoding="UTF-8"?>
<svg width="168.739956px" height="121px" viewBox="0 0 168.739956 121" version="1.1" xmlns="http://www.w3.org/2000/svg" xmlns:xlink="http://www.w3.org/1999/xlink">
    <title>Logo</title>
    <g id="Logo" stroke="none" stroke-width="1" fill="none" fill-rule="evenodd">
        <g id="uiw:paper-clip">
            <polygon id="ViewBox" transform="translate(60.500000, 60.500000) rotate(-45.000000) translate(-60.500000, -60.500000) " points="17.7200397 17.7200397 103.27996 17.7200397 103.27996 103.27996 17.7200397 103.27996"></polygon>
            <path d="M31.9763214,54.2017093 C31.4282663,54.7616484 30.6786347,55.0771162 29.8961321,55.0771162 C29.1136295,55.0771162 28.3639979,54.7616484 27.8159429,54.2017093 C26.667078,53.0299276 26.667078,51.1512162 27.8159429,49.9794345 L53.5505507,23.9185449 C59.3537453,19.4010959 65.1910764,17.232207 71.0028051,17.5273813 C78.3250713,17.9038354 84.0258565,20.7015737 88.8646968,25.2917468 C93.7974122,29.9717555 96.9891692,36.6495376 96.9891692,44.7433004 C96.9891692,50.9547928 95.1884721,56.4219328 91.3865262,61.273057 L55.1037587,98.74735 C51.4340915,101.763261 47.3547871,103.22202 42.9853229,103.046627 C37.4381516,102.815621 33.3119095,101.018908 30.2438971,97.9773303 C26.6510369,94.4224059 24.4492366,90.0546829 24.4492366,84.1811436 C24.4492366,79.5096907 26.0579163,75.1975803 29.377685,71.1506989 L61.3123235,38.4633618 C63.8725564,35.7255139 66.3773176,34.0999168 68.9375506,33.7063511 C72.4071051,33.1584893 75.922213,34.3678729 78.3250713,36.9361561 C80.5951444,39.3446066 81.5680329,42.3476835 81.2266686,45.7657155 C80.9919805,48.0971641 80.0404273,50.2446635 78.2909348,52.3023273 L48.9335974,82.4528772 C48.3891395,83.0148848 47.6423588,83.3341378 46.8609074,83.3389639 C46.0794561,83.3437899 45.3288088,83.0337848 44.7774859,82.4785445 C43.6214861,81.3137769 43.6100941,79.4350411 44.7518836,78.2562697 L73.9684082,48.2597238 C74.8218192,47.2544203 75.26986,46.240561 75.3765363,45.1625334 C75.5472185,43.4513784 75.1375813,42.1894017 74.0750846,41.0643173 C72.9852335,39.8940093 71.3835574,39.3480569 69.8080298,39.6098356 C68.7711354,39.7681175 67.3203368,40.7135306 65.5324408,42.6214683 L33.7300809,75.1633572 C31.4386725,77.9653734 30.3292382,80.938505 30.3292382,84.1854215 C30.3292382,88.266526 31.8013721,91.1883231 34.3488039,93.7079987 C36.3756549,95.7186057 39.1279053,96.9164142 43.224278,97.0875297 C46.1258753,97.2030326 48.8141198,96.240508 51.1524659,94.341126 L86.9829256,57.3374007 C89.7351759,53.7995879 91.1091676,49.6372035 91.1091676,44.7475783 C91.1091676,38.4077493 88.647077,33.2657287 84.8451311,29.6551918 C80.9621112,25.967653 76.5243741,23.7944862 70.7083783,23.4950341 C66.407187,23.2725839 61.89691,24.9495158 57.4079683,28.397493 L31.9763214,54.2059872 L31.9763214,54.2017093 Z" id="Path" fill="#6366F1" fill-rule="nonzero" transform="translate(60.719203, 60.280797) rotate(-45.000000) translate(-60.719203, -60.280797) "></path>
        </g>
        <g id="uiw:paper-clip" transform="translate(47.739956, 0.000000)">
            <polygon id="ViewBox" transform="translate(60.500000, 60.500000) rotate(-45.000000) translate(-60.500000, -60.500000) " points="17.7200397 17.7200397 103.27996 17.7200397 103.27996 103.27996 17.7200397 103.27996"></polygon>
            <path d="M31.9763214,54.2017093 C31.4282663,54.7616484 30.6786347,55.0771162 29.8961321,55.0771162 C29.1136295,55.0771162 28.3639979,54.7616484 27.8159429,54.2017093 C26.667078,53.0299276 26.667078,51.1512162 27.8159429,49.9794345 L53.5505507,23.9185449 C59.3537453,19.4010959 65.1910764,17.232207 71.0028051,17.5273813 C78.3250713,17.9038354 84.0258565,20.7015737 88.8646968,25.2917468 C93.7974122,29.9717555 96.9891692,36.6495376 96.9891692,44.7433004 C96.9891692,50.9547928 95.1884721,56.4219328 91.3865262,61.273057 L55.1037587,98.74735 C51.4340915,101.763261 47.3547871,103.22202 42.9853229,103.046627 C37.4381516,102.815621 33.3119095,101.018908 30.2438971,97.9773303 C26.6510369,94.4224059 24.4492366,90.0546829 24.4492366,84.1811436 C24.4492366,79.5096907 26.0579163,75.1975803 29.377685,71.1506989 L61.3123235,38.4633618 C63.8725564,35.7255139 66.3773176,34.0999168 68.9375506,33.7063511 C72.4071051,33.1584893 75.922213,34.3678729 78.3250713,36.9361561 C80.5951444,39.3446066 81.5680329,42.3476835 81.2266686,45.7657155 C80.9919805,48.0971641 80.0404273,50.2446635 78.2909348,52.3023273 L48.9335974,82.4528772 C48.3891395,83.0148848 47.6423588,83.3341378 46.8609074,83.3389639 C46.0794561,83.3437899 45.3288088,83.0337848 44.7774859,82.4785445 C43.6214861,81.3137769 43.6100941,79.4350411 44.7518836,78.2562697 L73.9684082,48.2597238 C74.8218192,47.2544203 75.26986,46.240561 75.3765363,45.1625334 C75.5472185,43.4513784 75.1375813,42.1894017 74.0750846,41.0643173 C72.9852335,39.8940093 71.3835574,39.3480569 69.8080298,39.6098356 C68.7711354,39.7681175 67.3203368,40.7135306 65.5324408,42.6214683 L33.7300809,75.1633572 C31.4386725,77.9653734 30.3292382,80.938505 30.3292382,84.1854215 C30.3292382,88.266526 31.8013721,91.1883231 34.3488039,93.7079987 C36.3756549,95.7186057 39.1279053,96.9164142 43.224278,97.0875297 C46.1258753,97.2030326 48.8141198,96.240508 51.1524659,94.341126 L86.9829256,57.3374007 C89.7351759,53.7995879 91.1091676,49.6372035 91.1091676,44.7475783 C91.1091676,38.4077493 88.647077,33.2657287 84.8451311,29.6551918 C80.9621112,25.967653 76.5243741,23.7944862 70.7083783,23.4950341 C66.407187,23.2725839 61.89691,24.9495158 57.4079683,28.397493 L31.9763214,54.2059872 L31.9763214,54.2017093 Z" id="Path" fill="#6366F1" fill-rule="nonzero" transform="translate(60.719203, 60.280797) rotate(-45.000000) translate(-60.719203, -60.280797) "></path>
        </g>
    </g>
</svg>